<svg width="9" height="9" viewBox="0 0 9 9" fill="none" xmlns="http://www.w3.org/2000/svg" >
<path d="M7.97389 2.55814C7.79669 2.55814 7.65305 2.70178 7.65305 2.87898V6.30125C7.6507 7.13663 6.97408 7.81325 6.1387 7.8156H2.13892C1.30354 7.81325 0.626914 7.13663 0.624564 6.30125V2.28436C0.626914 1.44898 1.30354 0.772352 2.13892 0.770002H5.52697C5.70416 0.770002 5.8478 0.626358 5.8478 0.449164C5.8478 0.27197 5.70416 0.128326 5.52697 0.128326H2.13892C0.957626 0.128326 0 1.08595 0 2.26725V6.26702C0 6.8343 0.22535 7.37834 0.626475 7.77947C1.0276 8.18059 1.57164 8.40594 2.13892 8.40594H6.1387C7.31999 8.40594 8.27762 7.44832 8.27762 6.26702V2.84475C8.25923 2.68823 8.13122 2.56743 7.97389 2.55814Z" fill="white"/>
<path fill-rule="evenodd" clip-rule="evenodd" d="M2.8661 2.32288C3.42787 1.91016 4.15427 1.79387 4.8168 2.0106C5.40388 2.21025 5.88229 2.64376 6.13865 3.20839C6.36404 3.67915 6.43873 4.20798 6.35254 4.72275C6.29146 5.11408 6.01246 5.43627 5.63386 5.55265C5.31106 5.648 4.96193 5.57399 4.70557 5.35587C4.52405 5.46722 4.31536 5.52642 4.1024 5.52698C3.99838 5.52526 3.89495 5.51089 3.79439 5.4842C3.14962 5.27584 2.79413 4.58589 2.99872 3.9399C3.14863 3.40361 3.62727 3.02519 4.18368 3.00305C4.28786 3.00253 4.39158 3.01694 4.49168 3.04583C5.13639 3.25407 5.49056 3.94518 5.28308 4.59013C5.25179 4.69449 5.20874 4.79495 5.15475 4.88958C5.24518 4.94706 5.35655 4.96118 5.45847 4.92808C5.60311 4.88273 5.70827 4.75754 5.72798 4.60724C5.79159 4.22346 5.73636 3.8294 5.5697 3.47789C5.3863 3.07434 5.0441 2.76465 4.62429 2.62233C4.15577 2.46447 3.63965 2.54597 3.24255 2.8405C2.78718 3.18116 2.52049 3.71772 2.52388 4.28641C2.49251 5.20866 3.21039 5.98382 4.13234 6.02321C4.21744 6.02433 4.2986 6.05922 4.35797 6.1202C4.41733 6.18117 4.45005 6.26323 4.4489 6.34832C4.44891 6.43303 4.41497 6.5142 4.35468 6.57369C4.29438 6.63318 4.21276 6.66603 4.12807 6.66488C2.85449 6.6207 1.85332 5.56042 1.8822 4.28641C1.87809 3.5124 2.24363 2.78291 2.8661 2.32288ZM3.96548 4.87248C4.00947 4.87863 4.0541 4.87863 4.0981 4.87248C4.20259 4.86883 4.30373 4.83462 4.38899 4.77409C4.53293 4.68714 4.63728 4.54749 4.67988 4.38481C4.72879 4.22279 4.71347 4.04816 4.6371 3.89713C4.57571 3.76979 4.46414 3.67371 4.3291 3.63191C4.28498 3.62801 4.2406 3.62801 4.19649 3.63191C3.91104 3.63878 3.66891 3.84352 3.6147 4.12386C3.50572 4.42741 3.66248 4.76197 3.96548 4.87248Z" fill="white"/>
<path fill-rule="evenodd" clip-rule="evenodd" d="M8.41439 1.11224C8.41439 1.72651 7.91643 2.22448 7.30216 2.22448C7.00682 2.22562 6.72326 2.1088 6.51442 1.89997C6.30559 1.69114 6.18878 1.40757 6.18992 1.11224C6.18992 0.497966 6.68788 0 7.30216 0C7.91643 0 8.41439 0.497966 8.41439 1.11224ZM7.73729 0.937442C7.66471 0.761079 7.49286 0.645962 7.30215 0.645954C7.17775 0.644813 7.05804 0.693435 6.96967 0.781004C6.8813 0.868574 6.83159 0.987828 6.83159 1.11224C6.82986 1.30294 6.9434 1.47584 7.11909 1.55002C7.29478 1.6242 7.49788 1.58501 7.63335 1.45077C7.76882 1.31653 7.80986 1.11381 7.73729 0.937442Z" fill="white"/>
</svg>
