<svg width="149" height="47" viewBox="0 0 149 47" fill="none" xmlns="http://www.w3.org/2000/svg">
<g clip-path="url(#clip0_14_50)">
<path d="M26.4549 5.09581V0H0.239255V5.05688H10.623V6.35462C10.4188 6.39356 10.2884 6.42384 10.258 6.43249C8.73306 6.83912 6.47818 7.82108 5.53539 8.24501C5.58318 7.39282 5.2834 6.20322 3.87573 5.77064H3.86704C3.38044 5.64086 2.28124 5.68412 1.59479 6.76558C1.51658 6.8867 1.36018 7.26305 1.33845 7.52259C1.29066 8.11091 1.3819 9.23994 2.5202 10.2046C2.53323 10.2133 2.54627 10.2262 2.56799 10.2435C3.11976 10.6934 3.39782 11.2817 3.39782 12.0041C3.39782 13.3192 3.32396 24.5144 3.32396 24.6312C3.32396 24.6442 3.31527 26.0717 2.54192 27.2094C2.51585 27.2483 2.38117 27.417 1.7034 28.0659C-0.14742 29.8438 -0.508026 31.6131 0.717167 32.9238C0.782337 32.9973 1.37755 33.6462 2.35945 33.6462C2.5202 33.6462 2.68964 33.6289 2.86777 33.59C2.94163 34.4768 3.11976 35.2684 3.32831 35.9302C3.98869 38.0153 5.06617 39.3087 5.15306 39.4125C6.31743 40.9006 7.88151 41.9691 9.80184 42.5877C10.1016 42.6828 10.4101 42.7694 10.7273 42.8472H10.6577V47.0043L16.2189 46.987V43.137C18.9082 42.8775 20.9155 42.1854 21.0111 42.1551L21.2239 42.0815L20.3116 37.4443L20.0379 37.5265C18.6736 37.9417 17.3963 38.1753 16.2232 38.2359V33.1055C18.2652 32.7681 19.8554 32.0283 20.985 31.3189C21.0719 31.2627 21.1544 31.2108 21.2413 31.1545C21.4759 31.652 21.5759 31.9462 21.5759 31.9505L21.6714 32.236L25.7076 30.1423L25.6251 29.926C25.321 29.143 24.9604 28.399 24.5563 27.7242C25.0907 26.6773 25.7945 24.6572 24.8821 22.464C23.8655 20.0199 21.5455 18.9298 20.5245 18.5578L20.7156 18.415C20.7938 18.3588 21.5932 17.7964 22.3231 16.7885C23.3224 15.3999 23.7004 13.834 23.4137 12.255C22.7402 8.52619 18.6128 7.00782 18.287 6.89103C17.6092 6.57092 16.8793 6.35895 16.1494 6.22918V5.10014H26.4593L26.4549 5.09581ZM15.7062 46.4679L11.1834 46.4809V42.9424C12.1393 43.1327 13.169 43.2322 14.2595 43.2322C14.5071 43.2322 14.7634 43.2279 15.0198 43.2149C15.2544 43.2063 15.4803 43.1933 15.7062 43.176V46.4679ZM20.6331 41.7312C19.9423 41.9474 17.6613 42.5963 14.985 42.7001C10.7359 42.8645 7.56869 41.649 5.56146 39.0881L5.55277 39.0794C5.55277 39.0794 4.46661 37.8033 3.8236 35.7745C2.95901 33.0492 3.25445 30.337 4.69253 27.7069L4.70122 27.6939C4.7186 27.6549 6.5477 23.9131 10.6621 23.0826V27.218C10.3493 27.4343 9.50206 28.0789 8.86774 29.169C8.15087 30.4018 7.59041 32.4523 8.97636 35.2208C9.03718 35.3635 9.61937 36.6656 11.2443 37.6606C12.7475 38.5776 15.4629 39.3866 19.9119 38.1018L20.6287 41.7312H20.6331ZM15.7062 11.0568V28.3601C14.9937 28.5288 12.9387 28.9138 11.1834 28.2908V10.9962C12.2044 10.6415 13.9206 10.2998 15.7062 11.0525V11.0568ZM16.2232 26.7509C16.6534 26.8676 17.3615 27.0796 17.9524 27.3824C17.2964 27.8453 16.5882 28.1048 16.2232 28.2216V26.7509ZM18.3956 27.0277C17.6483 26.6081 16.6925 26.3312 16.2232 26.2144V22.7884C16.7359 22.836 17.8351 23.0004 19.1255 23.5541C19.2949 23.9088 19.3905 24.2938 19.4122 24.7177C19.4644 25.73 18.9995 26.4827 18.3956 27.032V27.0277ZM16.2232 22.2693V21.482C16.5491 21.5685 17.0965 21.7416 17.6439 22.053C18.0219 22.2693 18.3434 22.5202 18.5998 22.7927C17.531 22.4207 16.6577 22.3039 16.2232 22.265V22.2693ZM16.2232 11.3034C18.3912 12.4757 18.0958 14.2363 18.0784 14.3141V14.3487C18.0697 14.4006 17.9741 15.5989 16.2232 16.0488V11.3034ZM10.6621 28.0702C10.61 28.0443 10.5622 28.0183 10.51 27.9924C10.5622 27.9448 10.6143 27.9058 10.6621 27.8669V28.0702ZM10.6621 22.5505C9.92349 22.6889 9.25442 22.9182 8.6592 23.195V21.7545C8.88078 21.6637 9.46731 21.4777 10.6621 21.4171V22.5505ZM9.45427 35.0132L9.44558 34.9959C8.99374 34.1004 8.73306 33.2352 8.6592 32.4133C9.55854 32.6945 10.232 32.8632 10.6621 32.9584V36.5791C9.78447 35.7961 9.45862 35.0218 9.45427 35.0132ZM15.7062 38.2489C14.09 38.2618 12.6867 37.9244 11.5484 37.2366C11.4181 37.1588 11.2964 37.0766 11.1834 36.9987V33.0709C11.2225 33.0795 11.2443 33.0795 11.2486 33.0838C12.9083 33.352 14.3941 33.352 15.7062 33.1833V38.2532V38.2489ZM25.0559 29.8957L21.9625 31.5006C21.8974 31.3449 21.8061 31.1243 21.6758 30.8517C23.2616 29.7011 24.048 28.5677 24.1131 28.4682C24.1305 28.4422 24.1827 28.3687 24.2609 28.2476C24.5563 28.7667 24.8213 29.3161 25.0559 29.8957ZM18.1045 7.37119C18.1479 7.38417 22.271 8.8463 22.901 12.3416C23.531 15.8195 20.4463 17.9694 20.4158 17.9911L19.3818 18.7611L19.9032 18.8952C19.9379 18.9038 23.2051 19.782 24.3999 22.6586C25.586 25.5093 23.7091 28.1394 23.6874 28.1654L23.6787 28.174C23.6787 28.174 22.6881 29.6318 20.6852 30.8907C18.8387 32.0457 15.7193 33.2742 11.3268 32.5647C11.3181 32.5647 10.384 32.4177 8.63313 31.864C8.64617 31.0075 8.86774 30.2029 9.30221 29.4458C9.5542 29.0089 9.84529 28.6499 10.119 28.3644C11.1443 28.9743 12.3391 29.156 13.3905 29.156C14.8112 29.156 15.9713 28.8272 16.1016 28.7926C16.2015 28.7667 17.1269 28.5331 18.048 27.9491C19.3427 27.1229 19.9944 25.9982 19.9292 24.6918C19.8641 23.3897 19.1602 22.3212 17.8872 21.5988C17.2138 21.2138 16.5534 21.0278 16.2232 20.9499V16.5852C18.3825 16.0964 18.5781 14.5953 18.5911 14.4006C18.6085 14.2882 18.6867 13.7042 18.4303 12.9818C18.174 12.268 17.5353 11.2731 15.9148 10.5896C12.8605 9.29618 10.0886 10.9054 9.9626 10.9789C8.50714 11.896 8.30294 13.2457 8.28556 13.3754C8.05964 14.7251 8.20301 15.9752 8.2117 16.0272L8.22039 16.0834L8.2508 16.131C8.29859 16.2045 8.89816 16.8447 10.6968 16.8447L10.8098 16.33C9.56289 16.33 8.84167 16.0012 8.72437 15.8887C8.6983 15.5989 8.6201 14.5434 8.80257 13.4533V13.4403C8.80257 13.4403 8.95464 12.2248 10.2363 11.4202C10.2407 11.4202 10.3971 11.3293 10.6621 11.2125V20.911C8.8634 20.9932 8.30728 21.3566 8.24646 21.3955L8.13784 21.4734V23.4676C7.13422 24.0169 6.36088 24.6961 5.80476 25.2844C4.77942 26.3745 4.28413 27.3651 4.23634 27.4689C3.11542 29.5194 2.78957 31.4357 2.83736 33.0665C1.77726 33.3434 1.13425 32.621 1.10384 32.5864L1.09515 32.5777C-0.282104 31.1069 1.10819 29.355 2.05967 28.4422C2.82867 27.7025 2.93294 27.5511 2.9677 27.4992C3.82794 26.2318 3.83663 24.6961 3.83663 24.6355C3.83663 24.5231 3.91049 13.3235 3.91049 12.0085C3.91049 11.4029 3.73236 10.5334 2.8895 9.84988C2.87646 9.84123 2.86777 9.83258 2.86777 9.83258L2.85039 9.8196C1.88588 9.00202 1.80768 8.059 1.84678 7.57018C1.85981 7.4058 1.98581 7.11164 2.02491 7.05108C2.66357 6.05182 3.64547 6.25946 3.72367 6.27676C5.38333 6.79153 4.97059 8.54781 4.94886 8.62135L4.81852 9.14478L5.31381 8.91551C5.34423 8.90253 8.50279 7.4404 10.384 6.93861C10.4275 6.92563 14.9285 5.87013 18.0741 7.36254L18.1001 7.37552L18.1045 7.37119ZM11.1443 6.26378V4.54211H0.760613V0.514772H25.9379V4.57671H15.628V6.14266C13.8641 5.91339 12.1436 6.0994 11.14 6.25946L11.1443 6.26378Z" fill="white"/>
<path d="M36.1041 8.82034V7.76484H47.9129V8.82034H42.6341V20.4135H41.3785V8.82034H36.0998H36.1041Z" fill="white"/>
<path d="M51.9186 7.76917H53.2047V13.5095H62.2589V7.76917H63.5276V20.4179H62.2589V14.578H53.2047V20.4179H51.9186V7.76917Z" fill="white"/>
<path d="M69.3494 7.76917H78.912V8.82466H70.6398V13.3798H78.521V14.4655H70.6398V19.3148H79.1075V20.4179H69.3494V7.76917Z" fill="white"/>
<path d="M90.6556 7.76917H96.0473C99.2059 7.76917 100.918 9.32646 100.918 11.0611C100.918 12.2594 100.088 13.5441 98.1501 13.9637V13.9983C100.431 14.3401 101.426 15.6681 101.426 17.048C101.426 18.9947 99.4535 20.4222 96.7859 20.4222H90.6643V7.77349L90.6556 7.76917ZM95.8996 13.5441C98.211 13.5441 99.5795 12.5881 99.5795 11.2255C99.5795 9.75039 97.9503 8.82466 95.7345 8.82466H91.9416V13.5441H95.8996ZM96.3558 19.3667C98.6672 19.3667 100.07 18.3934 100.07 17.0134C100.07 15.6335 98.5064 14.565 96.2124 14.565H91.946V19.3667H96.3601H96.3558Z" fill="white"/>
<path d="M105.167 14.1065C105.167 10.2954 108.603 7.50529 112.822 7.50529C117.041 7.50529 120.46 10.4079 120.46 14.1065C120.46 17.8051 117.054 20.6904 112.805 20.6904C108.556 20.6904 105.167 17.9175 105.167 14.1065ZM112.839 19.6046C116.176 19.6046 119.078 17.286 119.078 14.1065C119.078 10.927 116.198 8.59107 112.839 8.59107C109.481 8.59107 106.535 10.9097 106.535 14.1065C106.535 17.3033 109.468 19.6046 112.839 19.6046Z" fill="white"/>
<path d="M123.931 16.9788L125.104 16.5895C125.756 18.6183 127.581 19.6219 129.649 19.6219C131.374 19.6219 133.411 18.9081 133.411 17.1562C133.411 15.5037 131.587 15.162 130.105 14.79L128.671 14.4179C127.255 14.0459 124.47 13.2673 124.47 10.8838C124.47 8.63 126.977 7.50962 129.388 7.50962C131.8 7.50962 133.72 8.58242 134.406 10.542L133.264 10.9659C132.695 9.52112 131.226 8.58242 129.241 8.58242C127.368 8.58242 125.786 9.44326 125.786 10.8059C125.786 12.4757 128.15 13.0769 129.062 13.3192L130.544 13.7258C132.269 14.18 134.78 14.6991 134.78 17.0005C134.78 19.3018 132.351 20.699 129.618 20.699C127.42 20.699 124.831 19.7603 123.936 16.9875L123.931 16.9788Z" fill="white"/>
<path d="M138.156 16.9788L139.329 16.5895C139.98 18.6183 141.805 19.6219 143.873 19.6219C145.598 19.6219 147.636 18.9081 147.636 17.1562C147.636 15.5037 145.811 15.162 144.329 14.79L142.896 14.4179C141.479 14.0459 138.694 13.2673 138.694 10.8838C138.694 8.63 141.201 7.50962 143.613 7.50962C146.024 7.50962 147.944 8.58242 148.631 10.542L147.488 10.9659C146.919 9.52112 145.45 8.58242 143.465 8.58242C141.592 8.58242 140.011 9.44326 140.011 10.8059C140.011 12.4757 142.374 13.0769 143.287 13.3192L144.768 13.7258C146.493 14.18 149.004 14.6991 149.004 17.0005C149.004 19.3018 146.576 20.699 143.843 20.699C141.644 20.699 139.055 19.7603 138.16 16.9875L138.156 16.9788Z" fill="white"/>
<path d="M35.9477 32.9411C35.9477 28.9354 39.3365 26.3096 43.5378 26.3096C46.3401 26.3096 49.238 27.5079 50.2329 30.0082L49.0946 30.4278C48.1518 28.4985 45.9665 27.3954 43.5552 27.3954C40.2141 27.3954 37.2989 29.4718 37.2989 32.9584C37.2989 36.657 40.54 38.4089 43.7811 38.4089C47.0222 38.4089 48.9947 36.657 49.6942 34.5806L50.8325 34.9526C49.8897 37.5481 47.5262 39.4947 43.6334 39.4947C39.1236 39.4947 35.9477 36.804 35.9477 32.9411Z" fill="white"/>
<path d="M55.0381 26.5648H56.3241V38.1104H64.2053V39.2135H55.0338V26.5648H55.0381Z" fill="white"/>
<path d="M67.6116 34.6282V26.5692H68.8802V34.5633C68.8802 37.2712 70.5268 38.4219 73.0511 38.4219C75.5753 38.4219 77.235 37.2712 77.235 34.5633V26.5692H78.5036V34.6282C78.5036 37.3707 76.8092 39.4947 72.9989 39.4947C69.6101 39.4947 67.6072 37.7428 67.6072 34.6282H67.6116Z" fill="white"/>
<path d="M84.1299 26.5648H89.5217C92.6802 26.5648 94.392 28.1221 94.392 29.8568C94.392 31.055 93.5622 32.3398 91.6245 32.7594V32.794C93.9054 33.1358 94.9003 34.4638 94.9003 35.8437C94.9003 37.7903 92.9279 39.2179 90.2603 39.2179H84.1386V26.5692L84.1299 26.5648ZM89.3739 32.3398C91.6853 32.3398 93.0539 31.3838 93.0539 30.0212C93.0539 28.5461 91.4246 27.6203 89.2088 27.6203H85.416V32.3398H89.3739ZM89.8301 38.1624C92.1415 38.1624 93.5448 37.189 93.5448 35.8091C93.5448 34.4292 91.9807 33.3607 89.6868 33.3607H85.4203V38.1624H89.8345H89.8301Z" fill="white"/>
</g>
<defs>
<clipPath id="clip0_14_50">
<rect width="149" height="47" fill="white"/>
</clipPath>
</defs>
</svg>
