<svg width="429" height="765" viewBox="0 0 429 765" fill="none" xmlns="http://www.w3.org/2000/svg">
<g clip-path="url(#clip0_8_104)">
<path d="M46.3892 546.564C23.8857 549.641 5.43325 536.947 0.853209 515.309C-1.50293 504.165 1.24991 493.779 6.29877 483.874C11.8645 472.946 19.3657 463.342 28.634 455.516C46.5575 440.381 53.4576 420.679 53.7822 398.151C54.1909 369.709 54.0947 341.267 54.239 312.837C54.4193 278.926 54.6236 245.002 54.8039 211.091C54.84 204.852 55.0203 198.601 54.7799 192.374C54.3712 181.891 49.8032 173.404 41.7731 166.733C32.2644 158.835 25.4845 149.194 22.7196 136.981C18.7887 119.634 24.8594 104.944 39.2126 97.0705C60.4659 85.422 84.1234 99.4025 88.6434 120.56C89.5329 124.731 89.7613 129.047 90.3263 133.591C91.9011 132.905 93.548 132.196 95.1828 131.487C117.867 121.594 140.623 111.905 164.436 104.968C165.266 104.728 166.095 104.487 166.937 104.283C170.319 103.466 172.01 101.266 172.01 97.6835C172.01 92.6948 172.01 87.718 172.01 82.3326H4.14699V0H428.24V82.7653H261.856V100.857C267.481 102.288 273.312 103.43 278.901 105.269C305.697 114.092 330.652 126.246 350.848 146.573C366.439 162.249 376.801 180.701 379.843 202.892C383.209 227.439 377.222 249.739 363.566 270.138C355.8 281.739 346.316 291.716 335.016 299.939C334.343 300.432 333.73 300.997 333.309 301.345C340.786 305.144 348.42 308.57 355.584 312.765C376.236 324.858 392.525 341.159 402.226 363.362C413.814 389.905 412.516 416.555 401.3 442.725C398.656 448.892 398.944 453.196 402.118 458.906C407.648 468.835 412.023 479.414 417.012 489.992C394.725 501.605 373.063 512.893 351.257 524.265C348.888 518.422 346.568 512.7 344.417 507.399C334.463 512.64 325.05 518.014 315.277 522.642C299.421 530.143 282.664 534.975 265.414 538.065C263.575 538.389 262.853 538.918 262.853 540.914C262.925 567.144 262.901 593.386 262.901 619.616C262.901 620.265 263.022 620.914 263.106 621.792C285.669 620.602 307.379 615.673 329.126 608.881C334.09 634.162 339.007 659.165 343.984 684.494C317.694 693.486 290.766 698.739 263.058 701.708V764.23H172.803V760.84C172.803 740.753 172.719 720.665 172.899 700.578C172.923 697.429 171.914 696.395 169.017 695.65C145.551 689.639 124.166 679.373 105.521 663.782C81.9837 644.103 66.2841 619.087 56.0181 590.441C51.1135 576.737 48 562.612 46.6777 548.102C46.6296 547.634 46.5214 547.177 46.4252 546.564H46.3892ZM170.94 273.588C162.068 274.766 146.633 271.665 139.457 267.313C138.23 266.568 137.064 265.703 135.958 264.789C134.155 263.262 132.881 261.519 132.881 258.911C132.893 249.318 132.292 239.701 132.845 230.144C133.254 223.124 134.227 215.887 136.463 209.251C142.486 191.424 155.156 179.716 172.539 172.9C204.767 160.265 236.539 159.893 267.529 176.698C281.414 184.223 292.533 194.634 298.159 209.792C306.826 233.173 299.77 254.439 276.281 265.198C272.037 267.133 267.505 268.431 262.986 270.066C262.961 270.307 262.877 270.679 262.877 271.052C262.877 293.543 262.877 316.023 262.829 338.514C262.829 340.233 263.502 340.75 265.053 341.159C277.507 344.465 289.107 349.598 299.373 357.508C319.545 373.075 327.863 398.283 320.338 421.075C315.53 435.633 305.552 445.995 293.026 454.182C277.639 464.243 260.509 469.557 242.478 472.213C215.37 476.204 188.863 475.339 164.052 461.623C163.763 461.863 163.451 462.079 163.198 462.356C149.254 477.514 141.103 495.173 140.046 515.922C139.949 517.725 140.478 518.398 142.173 518.915C157.596 523.567 173.044 528.135 189.044 530.443C213.35 533.954 237.645 534.134 261.868 529.975C301.585 523.135 336.338 506.245 365.718 478.404C380.071 464.796 391.022 449.145 396.804 430.067C405.315 402.034 402.671 375.479 385.481 351.317C369.012 328.152 345.991 314.268 319.004 306.49C317.417 306.033 315.818 305.625 313.763 305.06C317.958 301.91 321.636 298.989 325.459 296.284C335.713 289.024 344.885 280.633 352.483 270.583C364.131 255.196 371.464 238.126 372.101 218.64C372.846 195.884 365.045 176.133 350.295 158.991C338.803 145.624 324.882 135.322 309.327 127.267C291.343 117.963 272.626 110.75 252.311 108.334C235.265 106.303 218.219 106.194 201.173 107.817C188.467 109.019 175.748 110.414 163.487 114.176C138.495 121.834 114.585 132.256 90.7591 142.871C86.6839 144.686 82.6569 146.585 78.3052 148.581C79.2308 144.169 80.4089 140.202 80.8657 136.151C82.0678 125.681 80.2767 116.016 72.1865 108.418C64.3367 101.037 53.6379 99.4025 44.2013 104.103C34.4161 108.971 29.1269 118.708 30.1607 129.347C31.3988 142.053 37.5176 151.971 47.1104 159.989C57.9415 169.041 63.4591 180.629 63.399 194.742C63.2548 228.461 63.0264 262.18 62.834 295.9C62.6417 329.619 62.5816 363.338 62.1488 397.057C62.0527 404.582 61.2232 412.228 59.6845 419.597C57.2322 431.341 52.9407 442.473 44.574 451.465C39.6694 456.73 34.344 461.599 29.3673 466.804C20.8684 475.699 13.5235 485.388 10.0253 497.421C5.0606 514.467 14.0524 532.271 30.1366 537.368C35.3418 539.014 40.595 539.291 46.0526 537.392C46.0526 532.824 45.8602 528.4 46.0886 524C47.459 497.494 54.9362 472.73 67.1256 449.241C81.7913 421.003 102.468 398.524 129.972 382.391C130.874 381.863 131.691 380.348 131.715 379.29C131.859 370.647 132.076 361.98 131.667 353.348C131.475 349.273 133.073 347.11 136.572 346.208C143.784 344.333 151.021 342.505 158.342 341.111C162.994 340.221 167.802 340.113 172.467 339.668V182.252C157.765 188.948 147.691 199.502 143.628 214.745C139.961 228.485 140.31 242.706 141.296 256.831C141.368 257.817 142.462 259.223 143.412 259.572C148.136 261.327 152.896 263.166 157.801 264.26C162.032 265.198 166.492 265.15 170.88 265.546V273.576L170.94 273.588ZM334.163 679.084C330.196 658.925 326.385 639.487 322.586 620.193C312.573 622.441 303.004 624.881 293.327 626.708C269.369 631.24 245.266 632.599 221.236 627.526C182.889 619.448 154.591 598.844 140.142 561.29C133.662 544.46 130.08 527.21 132.196 509.166C135.405 481.878 149.134 460.649 170.639 444.12C172.178 442.942 172.827 441.812 172.815 439.876C172.743 419.404 172.779 398.945 172.767 378.473C172.767 377.571 172.659 376.657 172.599 375.551C171.084 375.852 169.834 375.96 168.668 376.333C162.369 378.328 155.901 379.951 149.831 382.5C117.758 395.915 94.137 418.803 77.2353 448.808C62.4253 475.11 53.9865 503.288 54.287 533.689C54.5275 558.645 60.526 582.315 71.2368 604.806C85.4938 634.715 106.459 658.408 135.97 674.024C161.323 687.439 188.707 693.065 217.077 694.387C246.192 695.746 274.983 692.861 303.412 686.574C313.594 684.326 323.68 681.657 334.174 679.084H334.163ZM419.885 8.53499H12.7661V73.6413H180.689V101.025C192.999 100.064 204.924 98.6693 216.873 98.3327C228.822 97.9961 240.795 98.7173 253.056 98.9818V74.3626H419.885V8.53499ZM254.246 320.543C254.246 274.622 254.222 228.702 254.306 182.781C254.306 180.341 253.513 179.307 251.301 178.489C229.254 170.351 207.159 170.952 184.908 177.624C181.927 178.513 181.17 179.812 181.17 182.805C181.254 272.915 181.242 363.025 181.242 453.136C181.242 460.348 181.23 460.408 188.383 462.212C209.227 467.477 230.048 466.046 250.88 462.019C253.585 461.49 254.318 460.469 254.306 457.728C254.21 411.999 254.234 366.271 254.234 320.543H254.246ZM181.242 537.981C181.242 539.688 181.242 540.83 181.242 541.972C181.242 560.592 181.314 579.225 181.17 597.846C181.146 600.827 182.144 602.462 184.608 604.025C200.644 614.255 218.303 619.484 237.08 621.263C242.67 621.792 248.308 621.888 254.054 622.189V539.772C229.711 542.909 205.669 541.852 181.254 537.981H181.242ZM181.542 699.34V755.755H253.994V702.97C241.66 702.97 229.567 703.439 217.522 702.838C205.513 702.237 193.552 700.554 181.542 699.34ZM263.01 426.064C268.816 427.927 274.55 429.514 280.092 431.606C285.729 433.734 291.139 436.426 296.729 438.686C297.462 438.987 298.917 438.482 299.578 437.869C314.075 424.249 318.415 403.681 310.625 385.349C310.096 384.11 308.846 382.812 307.608 382.295C296.909 377.751 285.814 374.446 274.394 372.318C270.691 371.633 266.928 371.248 263.01 370.707V426.064ZM263.022 260.798C270.535 258.814 277.122 255.917 282.724 251.013C290.67 244.053 293.952 235.265 293.002 224.795C292.004 213.723 287.292 204.407 279.695 196.473C274.922 191.472 269.429 187.421 263.01 184.067V260.798H263.022ZM140.19 527.51C144.289 553.235 152.812 576.328 172.587 594.804V536.382C161.84 533.437 151.333 530.564 140.19 527.51ZM355.849 512.159C372.51 503.468 389.039 494.861 405.953 486.049C401.673 477.142 397.502 468.487 393.198 459.507C390.758 462.813 388.846 465.578 386.767 468.198C377.102 480.364 365.802 490.846 353.408 500.186C352.423 500.932 350.884 501.376 351.822 503.276C353.216 506.101 354.43 509.01 355.849 512.159ZM140.334 377.054C141.753 376.465 142.594 376.056 143.484 375.768C151.201 373.195 158.859 370.418 166.66 368.134C172.707 366.367 172.791 366.644 172.791 360.297C172.791 356.414 172.791 352.531 172.791 348.396C169.233 348.672 166.143 348.672 163.138 349.189C156.262 350.367 149.41 351.75 142.582 353.204C141.729 353.385 140.454 354.539 140.43 355.272C140.274 362.352 140.334 369.445 140.334 377.054ZM263.022 458.798C272.951 455.504 282.027 451.357 290.273 445.562C290.273 445.226 290.249 444.901 290.237 444.565C281.306 441.343 272.374 438.133 263.022 434.767V458.786V458.798ZM262.889 349.478C262.889 353.108 262.998 356.354 262.853 359.575C262.769 361.535 263.454 362.1 265.39 362.424C273.228 363.747 281.041 365.213 288.831 366.848C292.509 367.618 296.092 368.892 299.71 369.938C289.612 359.347 277.086 353.409 262.889 349.49V349.478Z" fill="white" fill-opacity="0.05"/>
</g>
<defs>
<clipPath id="clip0_8_104">
<rect width="428.24" height="764.218" fill="white"/>
</clipPath>
</defs>
</svg>
